# xmcd CD database file
#
# Track frame offsets:
#	150
#	24035
#	59662
#	77179
#	99273
#	124538
#	142903
#	158463
#	186269
#
# Disc length: 2714 seconds
#
# Revision: 2
# Processed by: cddbd v1.5.2PL0 Copyright (c) Steve Scherf et al.
# Submitted via: CDex 1.70beta2
#
DISCID=640a9809
DTITLE=The Lara Price Band - I Got News
DYEAR=2005
DGENRE=Blues
TTITLE0=I Got News
TTITLE1=Crazy
TTITLE2=Game of Love
TTITLE3=Movin' On
TTITLE4=A Song for You
TTITLE5=Same Ole Song
TTITLE6=It's Alright
TTITLE7=Little Wing
TTITLE8=Have You Ever
EXTD=www.laraprice.com YEAR: 2005
EXTT0=Price/Chavez
EXTT1=Price - Chavez
EXTT2=
EXTT3=Laura Chavez
EXTT4=
EXTT5=
EXTT6=
EXTT7=J. Hendrix
EXTT8=Lara Price
PLAYORDER=
